<?xml version="1.0" encoding="UTF-8" standalone="no"?>
<!-- Created with Inkscape (http://www.inkscape.org/) -->
 
<svg
   xmlns:dc="http://purl.org/dc/elements/1.1/"
   xmlns:cc="http://creativecommons.org/ns#" 
   xmlns:rdf="http://www.w3.org/1999/02/22-rdf-syntax-ns#"
   xmlns:svg="http://www.w3.org/2000/svg"
   xmlns="http://www.w3.org/2000/svg"
   xmlns:sodipodi="http://sodipodi.sourceforge.net/DTD/sodipodi-0.dtd"
   xmlns:inkscape="http://www.inkscape.org/namespaces/inkscape"
   width="50"
   height="50"
   viewBox="0 0 49.999997 49.999997"
   id="svg4150"
   version="1.1"
   inkscape:version="0.91 r13725"
   sodipodi:docname="alg.svg">
  <defs
     id="defs4152" />
  <sodipodi:namedview
     id="base"
     pagecolor="#ffffff"
     bordercolor="#666666"
     borderopacity="1.0"
     inkscape:pageopacity="0.0"
     inkscape:pageshadow="2"
     inkscape:zoom="5.6"
     inkscape:cx="5.4472753"
     inkscape:cy="20.314395"
     inkscape:document-units="px"
     inkscape:current-layer="layer1"
     showgrid="false"
     units="px"
     inkscape:window-width="1920"
     inkscape:window-height="1017"
     inkscape:window-x="-8"
     inkscape:window-y="-8"
     inkscape:window-maximized="1" />
  <metadata
     id="metadata4155">
    <rdf:RDF>
      <cc:Work
         rdf:about="">
        <dc:format>image/svg+xml</dc:format>
        <dc:type
           rdf:resource="http://purl.org/dc/dcmitype/StillImage" />
        <dc:title></dc:title>
      </cc:Work>
    </rdf:RDF>
  </metadata>
  <g
     inkscape:label="Laag 1"
     inkscape:groupmode="layer"
     id="layer1"
     transform="translate(0,-1002.3622)">
    <path
       style="fill:#000000;fill-opacity:0;fill-rule:evenodd;stroke:#ffffff;stroke-width:2;stroke-linecap:butt;stroke-linejoin:round;stroke-miterlimit:4;stroke-dasharray:none;stroke-opacity:1;"
       d="m 15.831472,1008.4192 c 0,0 8.429815,13.7952 5.87406,18.5874 -2.555769,4.7921 1.241692,19.1942 1.241692,19.1942 -0.0095,0.2275 -7.767633,-16.2903 -4.574583,-21.3045 1.35651,-2.7982 -1.619449,-12.4814 -2.541169,-16.4771 z"
       id="path5354"
       inkscape:connector-curvature="0"
       sodipodi:nodetypes="csccc" />
    <path
       style="fill:#000000;fill-opacity:0;fill-rule:evenodd;stroke:#ffffff;stroke-width:2px;stroke-linecap:butt;stroke-linejoin:round;stroke-opacity:1"
       d="m 27.011415,1015.7884 c 0,0 4.64236,11.6931 0.957285,15.6828 -3.685064,3.9895 -4.261004,14.6075 -4.261004,14.6075 -0.06677,0.2177 -2.791272,-13.4768 1.566528,-17.52 2.020367,-2.364 0.938848,-10.5998 1.737191,-12.7703 z"
       id="path5354-9"
       inkscape:connector-curvature="0"
       sodipodi:nodetypes="csccc" />
    <path
       style="fill:#000000;fill-opacity:0;fill-rule:evenodd;stroke:#ffffff;stroke-width:2px;stroke-linecap:butt;stroke-linejoin:round;stroke-opacity:1"
       d="m 36.639025,1010.1216 c -10e-4,0.01 0.61665,22.2424 -4.002657,23.4824 -5.245324,1.4079 -9.101689,12.6848 -9.101689,12.6848 -0.120804,0.193 2.554478,-13.0825 7.809771,-15.861 2.563066,-1.761 3.961998,-18.416 5.294575,-20.3062 z"
       id="path5354-9-0"
       inkscape:connector-curvature="0"
       sodipodi:nodetypes="csccc" />
    <path
       style="fill:#000000;fill-opacity:0;fill-rule:evenodd;stroke:#ffffff;stroke-width:2px;stroke-linecap:butt;stroke-linejoin:round;stroke-opacity:1"
       d="m 11.424899,1025.4008 c 0,0 -0.648691,11.8229 2.833275,13.7151 3.481885,1.8918 8.76919,7.2242 8.76919,7.2242 0.09718,0.1346 -4.167144,-7.2938 -8.126442,-9.065 -2.432143,-1.0541 -0.233806,-7.4505 -3.476023,-11.8743 z"
       id="path5354-9-1"
       inkscape:connector-curvature="0"
       sodipodi:nodetypes="csccc" />
    <path
       style="fill:#000000;fill-opacity:0;stroke:none;stroke-width:2px;stroke-linecap:round;stroke-linejoin:round;stroke-miterlimit:4;stroke-dasharray:none;stroke-opacity:1"
       d="m 24.527421,1045.566 c -0.288096,0.948 -0.599902,1.3179 -1.339286,1.3393 -0.963982,0.028 -5.012555,-5.6198 -1.339286,-1.3393 4.7e-5,-0.7396 0.599652,-1.3392 1.339286,-1.3392 0.739634,0 3.614946,-5.95 1.339286,1.3392 z"
       id="path5401"
       inkscape:connector-curvature="0"
       sodipodi:nodetypes="cscsc" />
  </g>
</svg>
